<?xml version="1.0" encoding="UTF-8" standalone="no"?>
<!DOCTYPE svg PUBLIC "-//W3C//DTD SVG 1.1//EN"
 "http://www.w3.org/Graphics/SVG/1.1/DTD/svg11.dtd">
<!-- Generated by graphviz version 2.38.0 (20140413.2041)
 -->
<!-- Title: D Pages: 1 -->
<svg width="208pt" height="270pt"
 viewBox="0.00 0.00 208.00 270.00" xmlns="http://www.w3.org/2000/svg" xmlns:xlink="http://www.w3.org/1999/xlink">
<g id="graph0" class="graph" transform="scale(1 1) rotate(0) translate(4 266)">
<title>D</title>
<polygon fill="white" stroke="none" points="-4,4 -4,-266 204,-266 204,4 -4,4"/>
<g id="clust1" class="cluster"><title>cluster_pkgA</title>
<polygon fill="none" stroke="black" points="8,-88 8,-254 96,-254 96,-88 8,-88"/>
<text text-anchor="middle" x="52" y="-238.8" font-family="Times,serif" font-size="14.00">pkgA</text>
</g>
<g id="clust2" class="cluster"><title>cluster_pkgB</title>
<polygon fill="none" stroke="black" points="104,-8 104,-171 192,-171 192,-8 104,-8"/>
<text text-anchor="middle" x="148" y="-155.8" font-family="Times,serif" font-size="14.00">pkgB</text>
</g>
<!-- ar -->
<g id="node1" class="node"><title>ar</title>
<defs>
<linearGradient id="l_0" gradientUnits="userSpaceOnUse" x1="26.5442" y1="-133.556" x2="77.4558" y2="-102.444" >
<stop offset="0" style="stop-color:lightyellow;stop-opacity:1.;"/>
<stop offset="1" style="stop-color:khaki;stop-opacity:1.;"/>
</linearGradient>
</defs>
<ellipse fill="url(#l_0)" stroke="black" cx="52" cy="-118" rx="36" ry="22"/>
<text text-anchor="middle" x="52" y="-114.3" font-family="Helvetica,sans-Serif" font-size="14.00">R code</text>
</g>
<!-- ac -->
<g id="node2" class="node"><title>ac</title>
<defs>
<linearGradient id="l_1" gradientUnits="userSpaceOnUse" x1="26.5442" y1="-216.556" x2="77.4558" y2="-185.444" >
<stop offset="0" style="stop-color:lightyellow;stop-opacity:1.;"/>
<stop offset="1" style="stop-color:khaki;stop-opacity:1.;"/>
</linearGradient>
</defs>
<polygon fill="url(#l_1)" stroke="black" points="52,-223 16,-201 52,-179 88,-201 52,-223"/>
<text text-anchor="middle" x="52" y="-197.3" font-family="Helvetica,sans-Serif" font-size="14.00">C code</text>
</g>
<!-- ac&#45;&gt;ar -->
<g id="edge1" class="edge"><title>ac&#45;&gt;ar</title>
<path fill="none" stroke="black" d="M52,-178.718C52,-170.068 52,-159.895 52,-150.421"/>
<polygon fill="black" stroke="black" points="55.5001,-150.14 52,-140.14 48.5001,-150.14 55.5001,-150.14"/>
</g>
<!-- bc -->
<g id="node4" class="node"><title>bc</title>
<defs>
<linearGradient id="l_2" gradientUnits="userSpaceOnUse" x1="122.544" y1="-133.556" x2="173.456" y2="-102.444" >
<stop offset="0" style="stop-color:cornsilk;stop-opacity:1.;"/>
<stop offset="1" style="stop-color:bisque;stop-opacity:1.;"/>
</linearGradient>
</defs>
<polygon fill="url(#l_2)" stroke="black" points="148,-140 112,-118 148,-96 184,-118 148,-140"/>
<text text-anchor="middle" x="148" y="-114.3" font-family="Helvetica,sans-Serif" font-size="14.00">C code</text>
</g>
<!-- ac&#45;&gt;bc -->
<g id="edge3" class="edge"><title>ac&#45;&gt;bc</title>
<path fill="none" stroke="black" d="M71.047,-190.136C80.2051,-184.992 91.0988,-178.263 100,-171 110.858,-162.14 121.569,-150.852 130.109,-141.059"/>
<polygon fill="black" stroke="black" points="132.919,-143.157 136.727,-133.27 127.584,-138.624 132.919,-143.157"/>
</g>
<!-- br -->
<g id="node3" class="node"><title>br</title>
<defs>
<linearGradient id="l_3" gradientUnits="userSpaceOnUse" x1="122.544" y1="-53.5564" x2="173.456" y2="-22.4436" >
<stop offset="0" style="stop-color:cornsilk;stop-opacity:1.;"/>
<stop offset="1" style="stop-color:bisque;stop-opacity:1.;"/>
</linearGradient>
</defs>
<ellipse fill="url(#l_3)" stroke="black" cx="148" cy="-38" rx="36" ry="22"/>
<text text-anchor="middle" x="148" y="-34.3" font-family="Helvetica,sans-Serif" font-size="14.00">R code</text>
</g>
<!-- bc&#45;&gt;br -->
<g id="edge2" class="edge"><title>bc&#45;&gt;br</title>
<path fill="none" stroke="black" d="M148,-95.6862C148,-87.7975 148,-78.684 148,-70.1029"/>
<polygon fill="black" stroke="black" points="151.5,-70.018 148,-60.018 144.5,-70.018 151.5,-70.018"/>
</g>
</g>
</svg>
