<?xml version="1.0" encoding="UTF-8" standalone="no"?>
<!DOCTYPE svg PUBLIC "-//W3C//DTD SVG 1.1//EN"
 "http://www.w3.org/Graphics/SVG/1.1/DTD/svg11.dtd">
<!-- Generated by graphviz version 2.40.1 (20161225.0304)
 -->
<!-- Title: D Pages: 1 -->
<svg width="208pt" height="270pt"
 viewBox="0.00 0.00 208.00 270.00" xmlns="http://www.w3.org/2000/svg" xmlns:xlink="http://www.w3.org/1999/xlink">
<g id="graph0" class="graph" transform="scale(1 1) rotate(0) translate(4 266)">
<title>D</title>
<polygon fill="#ffffff" stroke="transparent" points="-4,4 -4,-266 204,-266 204,4 -4,4"/>
<g id="clust1" class="cluster">
<title>cluster_pkgOut</title>
<polygon fill="none" stroke="#000000" points="8,-88 8,-254 96,-254 96,-88 8,-88"/>
<text text-anchor="middle" x="52" y="-238.8" font-family="Times,serif" font-size="14.00" fill="#000000">pkgOut</text>
</g>
<g id="clust2" class="cluster">
<title>cluster_pkgIn</title>
<polygon fill="none" stroke="#000000" points="104,-8 104,-171 192,-171 192,-8 104,-8"/>
<text text-anchor="middle" x="148" y="-155.8" font-family="Times,serif" font-size="14.00" fill="#000000">pkgIn</text>
</g>
<!-- ar -->
<g id="node1" class="node">
<title>ar</title>
<defs>
<linearGradient id="l_0" gradientUnits="userSpaceOnUse" x1="26.5442" y1="-133.5564" x2="77.4558" y2="-102.4436" >
<stop offset="0" style="stop-color:#ffffe0;stop-opacity:1.;"/>
<stop offset="1" style="stop-color:#f0e68c;stop-opacity:1.;"/>
</linearGradient>
</defs>
<ellipse fill="url(#l_0)" stroke="#000000" cx="52" cy="-118" rx="36" ry="22"/>
<text text-anchor="middle" x="52" y="-114.3" font-family="Helvetica,sans-Serif" font-size="14.00" fill="#000000">R code</text>
</g>
<!-- ac -->
<g id="node2" class="node">
<title>ac</title>
<defs>
<linearGradient id="l_1" gradientUnits="userSpaceOnUse" x1="26.5442" y1="-216.5564" x2="77.4558" y2="-185.4436" >
<stop offset="0" style="stop-color:#ffffe0;stop-opacity:1.;"/>
<stop offset="1" style="stop-color:#f0e68c;stop-opacity:1.;"/>
</linearGradient>
</defs>
<polygon fill="url(#l_1)" stroke="#000000" points="52,-223 16,-201 52,-179 88,-201 52,-223"/>
<text text-anchor="middle" x="52" y="-197.3" font-family="Helvetica,sans-Serif" font-size="14.00" fill="#000000">C code</text>
</g>
<!-- ac&#45;&gt;ar -->
<g id="edge1" class="edge">
<title>ac&#45;&gt;ar</title>
<path fill="none" stroke="#000000" d="M52,-178.7575C52,-169.9416 52,-159.6359 52,-150.0423"/>
<polygon fill="#000000" stroke="#000000" points="55.5001,-150.016 52,-140.0161 48.5001,-150.0161 55.5001,-150.016"/>
</g>
<!-- bc -->
<g id="node4" class="node">
<title>bc</title>
<defs>
<linearGradient id="l_2" gradientUnits="userSpaceOnUse" x1="122.5442" y1="-133.5564" x2="173.4558" y2="-102.4436" >
<stop offset="0" style="stop-color:#fff8dc;stop-opacity:1.;"/>
<stop offset="1" style="stop-color:#ffe4c4;stop-opacity:1.;"/>
</linearGradient>
</defs>
<polygon fill="url(#l_2)" stroke="#000000" points="148,-140 112,-118 148,-96 184,-118 148,-140"/>
<text text-anchor="middle" x="148" y="-114.3" font-family="Helvetica,sans-Serif" font-size="14.00" fill="#000000">C code</text>
</g>
<!-- ac&#45;&gt;bc -->
<g id="edge3" class="edge">
<title>ac&#45;&gt;bc</title>
<path fill="none" stroke="#ff0000" stroke-width="2" stroke-dasharray="5,2" d="M71.521,-190.4601C80.5822,-185.1606 91.2573,-178.3152 100,-171 110.711,-162.0379 121.2778,-150.7173 129.7586,-140.8419"/>
<polygon fill="#ff0000" stroke="#ff0000" stroke-width="2" points="132.6133,-142.8843 136.3492,-132.97 127.2461,-138.3907 132.6133,-142.8843"/>
</g>
<!-- br -->
<g id="node3" class="node">
<title>br</title>
<defs>
<linearGradient id="l_3" gradientUnits="userSpaceOnUse" x1="122.5442" y1="-53.5564" x2="173.4558" y2="-22.4436" >
<stop offset="0" style="stop-color:#fff8dc;stop-opacity:1.;"/>
<stop offset="1" style="stop-color:#ffe4c4;stop-opacity:1.;"/>
</linearGradient>
</defs>
<ellipse fill="url(#l_3)" stroke="#000000" cx="148" cy="-38" rx="36" ry="22"/>
<text text-anchor="middle" x="148" y="-34.3" font-family="Helvetica,sans-Serif" font-size="14.00" fill="#000000">R code</text>
</g>
<!-- bc&#45;&gt;br -->
<g id="edge2" class="edge">
<title>bc&#45;&gt;br</title>
<path fill="none" stroke="#000000" d="M148,-95.7155C148,-87.827 148,-78.7865 148,-70.2379"/>
<polygon fill="#000000" stroke="#000000" points="151.5001,-70.1649 148,-60.165 144.5001,-70.165 151.5001,-70.1649"/>
</g>
</g>
</svg>
